<?xml version="1.0" encoding="UTF-8"?>
<svg version="1.1" xmlns="http://www.w3.org/2000/svg" width="346" height="295">
<path d="M0 0 C1.34266399 0.34408966 2.68557139 0.68723069 4.02870178 1.02949524 C7.62739658 1.94939923 11.22253853 2.88252433 14.81712341 3.8183403 C18.56199135 4.79090976 22.30997626 5.75131762 26.05761719 6.71313477 C32.93512 8.48023253 39.80973781 10.25827106 46.68306923 12.04151821 C51.68240325 13.33839065 56.68274706 14.63127618 61.68408203 15.92041016 C62.34649682 16.09115303 63.00891161 16.2618959 63.69139957 16.43781281 C65.00302446 16.77588374 66.31464994 17.11395242 67.62627602 17.45201874 C77.494201 19.99625396 87.36019059 22.54796269 97.22265625 25.11328125 C98.62125633 25.47623039 98.62125633 25.47623039 100.04811096 25.84651184 C104.83892346 27.09495678 109.60945972 28.39061804 114.36328125 29.7734375 C114.03328125 31.4234375 113.70328125 33.0734375 113.36328125 34.7734375 C106.03283037 36.77430156 98.70028068 38.7673248 91.36621094 40.75488281 C88.8709273 41.43210916 86.37613167 42.11113627 83.88183594 42.79199219 C80.2987916 43.76970436 76.71404848 44.7409504 73.12890625 45.7109375 C72.01211487 46.01717041 70.89532349 46.32340332 69.74468994 46.63891602 C68.70391296 46.91920654 67.66313599 47.19949707 66.59082031 47.48828125 C65.67592834 47.73698975 64.76103638 47.98569824 63.81842041 48.24194336 C61.36328125 48.7734375 61.36328125 48.7734375 57.36328125 48.7734375 C57.36328125 49.4334375 57.36328125 50.0934375 57.36328125 50.7734375 C71.62329651 53.49726064 85.86019605 55.92031484 100.36328125 56.7734375 C100.69328125 61.3934375 101.02328125 66.0134375 101.36328125 70.7734375 C103.48765625 70.9178125 105.61203125 71.0621875 107.80078125 71.2109375 C114.23828125 71.6484375 114.23828125 71.6484375 115.36328125 72.7734375 C115.4666211 74.79371246 115.49850984 76.81765141 115.50372314 78.84056091 C115.50943329 80.16006744 115.51514343 81.47957397 115.52102661 82.83906555 C115.5222721 84.31515494 115.52339716 85.79124443 115.52441406 87.26733398 C115.52903975 88.81101603 115.53406407 90.35469692 115.53945923 91.89837646 C115.55260827 96.10286246 115.55903291 100.30733246 115.56346989 104.51183581 C115.56639625 107.13556368 115.57050018 109.75928712 115.57497406 112.38301277 C115.58865485 120.58320199 115.59831897 128.78338117 115.60217595 136.98358101 C115.60665997 146.46614873 115.62422134 155.94857255 115.65317655 165.43109649 C115.67475336 172.74998633 115.68487806 180.06883556 115.68621707 187.38775688 C115.68726787 191.76415501 115.69323383 196.14041797 115.71103668 200.51678276 C115.72744872 204.63142374 115.72970661 208.74582696 115.72089767 212.86048889 C115.72012362 214.37384742 115.72451811 215.88721837 115.73435593 217.40054512 C115.74696544 219.46042814 115.74126012 221.51945489 115.73077393 223.57933044 C115.73224049 224.73396003 115.73370705 225.88858961 115.73521805 227.07820797 C115.6124789 227.96763371 115.48973976 228.85705946 115.36328125 229.7734375 C105.49935322 236.34938952 86.13905828 229.91367188 75.36328125 227.7734375 C69.40726198 226.50694164 63.46549352 225.18052509 57.53662109 223.79248047 C34.64089311 218.4827747 12.33414493 220.4724805 -8.33203125 232.27734375 C-10.41965904 233.63253263 -12.22609708 235.05130585 -14.07421875 236.7109375 C-16.63671875 238.7734375 -16.63671875 238.7734375 -18.51953125 238.6015625 C-21.06768871 237.60486622 -22.89939991 236.24730839 -25.07421875 234.5859375 C-42.61069513 222.04516805 -63.78958904 218.46869846 -84.82421875 221.8984375 C-92.56331272 223.22530824 -100.18521803 225.03093232 -107.82421875 226.8359375 C-121.14253711 229.97844055 -134.84920999 233.17695636 -148.63671875 231.7734375 C-149.62671875 231.1134375 -150.61671875 230.4534375 -151.63671875 229.7734375 C-152.00865555 227.1518507 -152.00865555 227.1518507 -152.00421143 223.75810242 C-152.00978058 222.47521332 -152.01534973 221.19232422 -152.02108765 219.87055969 C-152.01206414 218.44064149 -152.00274632 217.01072512 -151.99316406 215.58081055 C-151.99395457 214.08125692 -151.9960507 212.5817035 -151.99935913 211.08215332 C-152.00450546 207.00139052 -151.99093169 202.92087872 -151.97383213 198.84015632 C-151.95882058 194.57303454 -151.95997067 190.30591635 -151.95916748 186.03877258 C-151.95547118 178.86865951 -151.94048865 171.69864196 -151.91796875 164.52856445 C-151.8891299 155.32791023 -151.87874894 146.12733311 -151.87428665 136.9266386 C-151.87030325 129.01846571 -151.8577989 121.11030955 -151.84393978 113.20214868 C-151.83984362 110.66007732 -151.83691645 108.11800656 -151.83414459 105.57593346 C-151.82924265 101.57786917 -151.81902411 97.57985131 -151.80470657 93.58181 C-151.80019228 92.11487307 -151.79734697 90.6479299 -151.79629898 89.1809864 C-151.7945466 87.17722272 -151.7860209 85.17346837 -151.77716064 83.16972351 C-151.77418598 82.0486555 -151.77121132 80.92758749 -151.76814651 79.77254772 C-151.63671875 76.7734375 -151.63671875 76.7734375 -150.63671875 71.7734375 C-146.34671875 71.7734375 -142.05671875 71.7734375 -137.63671875 71.7734375 C-137.96671875 60.5534375 -138.29671875 49.3334375 -138.63671875 37.7734375 C-144.08171875 36.2884375 -144.08171875 36.2884375 -149.63671875 34.7734375 C-149.96671875 33.1234375 -150.29671875 31.4734375 -150.63671875 29.7734375 C-138.02482018 26.20704697 -125.36736813 22.87663581 -112.65625 19.68359375 C-110.78646012 19.21208302 -108.91672564 18.74035254 -107.04704285 18.26841736 C-102.16898796 17.03760901 -97.2903355 15.80918799 -92.41149902 14.58148193 C-84.63997069 12.62554963 -76.869294 10.66624232 -69.0988121 8.70615768 C-66.30538189 8.00217531 -63.51150616 7.29998381 -60.71755981 6.59805298 C-53.16147365 4.69692885 -45.61091683 2.78685821 -38.09130859 0.74560547 C-37.02635666 0.45785751 -35.96140472 0.17010956 -34.86418152 -0.12635803 C-33.03118452 -0.6261507 -31.20062902 -1.13506842 -29.37373352 -1.65672302 C-18.85775755 -4.52769909 -10.43674673 -2.73876737 0 0 Z M-131.63671875 40.7734375 C-131.63671875 46.0534375 -131.63671875 51.3334375 -131.63671875 56.7734375 C-124.61642258 56.96181754 -118.36069543 56.39102747 -111.51171875 54.8984375 C-110.66996094 54.72441406 -109.82820313 54.55039063 -108.9609375 54.37109375 C-103.81931853 53.29494094 -98.72494177 52.07780876 -93.63671875 50.7734375 C-94.49642946 48.48054633 -94.49642946 48.48054633 -97.28540039 47.81201172 C-101.97078963 46.49625932 -101.97078963 46.49625932 -106.6628418 45.20458984 C-108.67050388 44.65627978 -110.67205769 44.08892153 -112.67382812 43.51953125 C-113.96451813 43.16288201 -115.25552535 42.80737838 -116.546875 42.453125 C-117.71355713 42.13069824 -118.88023926 41.80827148 -120.08227539 41.47607422 C-124.34086938 40.51486986 -124.34086938 40.51486986 -131.63671875 40.7734375 Z " fill="#085C82" transform="translate(174.63671875,28.2265625)"/>
<path d="M0 0 C0.35506647 8.15718501 -0.83424901 16.03981233 -2.02636719 24.08325195 C-2.37353222 26.42758839 -2.71099876 28.77316296 -3.046875 31.11914062 C-4.05721536 38.10489604 -5.12046688 45.0622246 -6.57568359 51.97192383 C-7.17633154 54.84279984 -7.65379295 57.73044242 -8.125 60.625 C-8.29257813 61.64851563 -8.46015625 62.67203125 -8.6328125 63.7265625 C-8.81457031 64.85191406 -8.81457031 64.85191406 -9 66 C-8.28457031 66.12246094 -7.56914063 66.24492187 -6.83203125 66.37109375 C2.01488716 68.33571977 10.27943456 73.03561489 18.30395508 77.14477539 C22.4719537 79.2737531 26.68597195 81.17731076 31 83 C33.04459747 83.95206447 35.08628993 84.91039293 37.125 85.875 C41.65235196 87.98220068 46.19688704 89.87879194 50.875 91.625 C55.58681713 93.3905122 59.70328193 95.40406616 64 98 C67.87539949 99.89043877 70.69203983 100.56897587 75 100 C77.53067012 98.89913657 79.94253132 97.64758364 82.37890625 96.3515625 C84.78481865 95.11095789 87.16177805 94.09158245 89.6875 93.125 C94.87168682 91.130448 99.8477204 88.74865327 104.82299805 86.28564453 C108.22008296 84.64807539 110.14400736 84 114 84 C114 83.34 114 82.68 114 82 C115.23363281 81.54560547 115.23363281 81.54560547 116.4921875 81.08203125 C122.57885947 78.79777214 128.4629176 76.39318177 134.234375 73.40234375 C137.82674537 71.58078872 141.47205538 69.88354055 145.125 68.1875 C146.13989502 67.71594482 146.13989502 67.71594482 147.17529297 67.23486328 C148.78301111 66.48879259 150.3914298 65.74423181 152 65 C150.9845289 43.78069014 150.9845289 43.78069014 147.4375 22.875 C145.67407533 15.28693019 145.29216901 7.75759098 145 0 C146.37529053 0.26935414 147.75020359 0.54063511 149.125 0.8125 C150.05054688 0.99425781 150.97609375 1.17601563 151.9296875 1.36328125 C153.96308758 1.784966 155.98980644 2.24038156 158.0078125 2.73046875 C168.89746675 5.31512163 179.86201885 6.1482096 191 7 C191.79090474 17.00181436 192.12226297 26.88390487 192.02172852 36.92163086 C192.01154853 38.34254123 192.00185912 39.76345518 191.99261475 41.18437195 C191.96650518 44.98919794 191.93365654 48.79393759 191.89946485 52.59869838 C191.86474709 56.59446053 191.8364115 60.59026821 191.80735779 64.58607483 C191.7515625 72.1292158 191.69014554 79.67229976 191.62663645 87.2153793 C191.55452886 95.81287017 191.48879853 104.41040626 191.42356598 113.00795162 C191.28940163 130.67202666 191.14735183 148.33603029 191 166 C183.74890181 169.6255491 172.74008604 166.79653132 165.125 165.1875 C164.34133057 165.0222583 163.55766113 164.8570166 162.75024414 164.68676758 C159.02987026 163.84937805 155.50207604 162.8649445 151.953125 161.46484375 C147.91241538 159.87996646 143.89615945 159.08018205 139.625 158.375 C132.22520661 157.11260331 132.22520661 157.11260331 130 156 C109.58986545 154.40053564 93.73569806 157.69476477 77.4453125 170.328125 C73.6121498 172.94888161 73.6121498 172.94888161 71 173 C68.58984375 171.5234375 68.58984375 171.5234375 65.9375 169.375 C60.56871084 165.26776878 55.22832569 162.55147921 49 160 C47.70800907 159.41738522 46.41629438 158.83415698 45.125 158.25 C39.72051193 156.08820477 34.71268396 155.84375464 28.9375 155.875 C28.24978516 155.87113281 27.56207031 155.86726562 26.85351562 155.86328125 C16.08400404 155.88295159 6.45258958 157.13222007 -3.8125 160.4375 C-32.41727097 169.19424301 -32.41727097 169.19424301 -45 165 C-46.46582754 154.05864442 -46.0874713 143.01166524 -46 132 C-41.05 131.01 -41.05 131.01 -36 130 C-36.48823242 128.47262207 -36.97646484 126.94524414 -37.47949219 125.37158203 C-39.32913317 118.55716532 -39.39859648 112.07878607 -39.328125 105.0546875 C-39.32625183 103.76305695 -39.32437866 102.47142639 -39.32244873 101.14065552 C-39.31788824 98.43283173 -39.30361556 95.72531247 -39.28125 93.01757812 C-39.25268609 89.54171964 -39.24200564 86.06609654 -39.2375679 82.59013176 C-39.23243201 79.26578056 -39.21790499 75.94151075 -39.203125 72.6171875 C-39.19887512 71.36630341 -39.19462524 70.11541931 -39.19024658 68.82662964 C-39.18063904 67.68098541 -39.17103149 66.53534119 -39.16113281 65.35498047 C-39.15089081 63.83588577 -39.15089081 63.83588577 -39.14044189 62.28610229 C-39 60 -39 60 -38 59 C-37.76924918 57.65252916 -37.58846937 56.29622435 -37.4375 54.9375 C-37.2209375 52.9884375 -37.2209375 52.9884375 -37 51 C-37.66 51 -38.32 51 -39 51 C-39 51.66 -39 52.32 -39 53 C-42.3 53 -45.6 53 -49 53 C-48.34 51.68 -47.68 50.36 -47 49 C-45.02 49 -43.04 49 -41 49 C-41 35.14 -41 21.28 -41 7 C-37.7 6.5875 -34.4 6.175 -31 5.75 C-22.48121908 4.63797208 -14.29942001 3.04628748 -6.01953125 0.76953125 C-3 0 -3 0 0 0 Z " fill="#9BDCF8" transform="translate(84,78)"/>
<path d="M0 0 C6.53160903 0.92715637 12.684301 2.44891493 18.9375 4.5 C25.5566838 6.6669947 32.07496877 8.12125551 39 9 C39 9.66 39 10.32 39 11 C40.0725 11.103125 41.145 11.20625 42.25 11.3125 C57.15945184 13.15945184 57.15945184 13.15945184 60 16 C72.05032554 18.2133251 81.45588389 15.62309186 93 12.25 C101.53372072 9.77493431 110.16121006 7.67702728 118.78710938 5.54980469 C125.15167717 3.97727777 131.48472644 2.34521698 137.78637695 0.53540039 C140 0 140 0 143 0 C144.82266518 4.91805347 145.72990978 9.71576198 146.5 14.875 C146.62818115 15.71216553 146.7563623 16.54933105 146.88842773 17.41186523 C148.07271493 25.25730325 149.08690764 33.11837783 150 41 C150.09168457 41.77891602 150.18336914 42.55783203 150.27783203 43.36035156 C150.56429131 45.80228364 150.84566523 48.24474338 151.125 50.6875 C151.25660522 51.81973999 151.25660522 51.81973999 151.39086914 52.97485352 C151.6153797 54.98094938 151.80900005 56.9904367 152 59 C152.12117187 59.93457031 152.24234375 60.86914062 152.3671875 61.83203125 C152 64 152 64 150.0546875 65.56640625 C145.32930553 67.78407273 140.56404871 69.88785964 135.76953125 71.95117188 C132.14038904 73.53396583 128.64287344 75.14913962 125.23828125 77.17578125 C122.3750682 78.78871309 120.25403237 79.66079402 117.0625 80.25 C116.29035156 80.39953125 115.51820313 80.5490625 114.72265625 80.703125 C114.15417969 80.80109375 113.58570313 80.8990625 113 81 C113 81.66 113 82.32 113 83 C112.38253906 83.24234375 111.76507813 83.4846875 111.12890625 83.734375 C103.47556828 86.76309322 95.99074584 90.09322129 88.5 93.5 C87.11748047 94.12455078 87.11748047 94.12455078 85.70703125 94.76171875 C83.9664802 95.55790155 82.23380894 96.37166882 80.51171875 97.20703125 C79.74472656 97.57183594 78.97773438 97.93664062 78.1875 98.3125 C77.52105469 98.63863281 76.85460937 98.96476562 76.16796875 99.30078125 C72.2079724 100.57796926 69.08567848 100.44813112 65.24609375 98.86328125 C64.31925781 98.35152344 63.39242187 97.83976562 62.4375 97.3125 C58.21145214 95.08469453 54.04097926 93.16451953 49.5625 91.5 C43.94592493 89.40636628 38.53537813 87.01680072 33.11328125 84.46484375 C30.27677226 83.13022534 27.42475348 81.8406659 24.5625 80.5625 C20.29463313 78.63387212 16.11229904 76.55801503 11.9375 74.4375 C6.38793663 71.63837812 0.81092633 69.1933908 -5 67 C-6.66733665 66.33501075 -8.33408204 65.66853541 -10 65 C-9.4274182 55.94480262 -8.12646869 47.11990425 -6.5625 38.1875 C-4.98276764 29.08880412 -3.55735452 20.0110876 -2.44506836 10.8449707 C-2 8 -2 8 -1 7 C-0.63239269 4.67182036 -0.29758419 2.3381615 0 0 Z " fill="#021924" transform="translate(85,79)"/>
<path d="M0 0 C0.33 0 0.66 0 1 0 C1 19.14 1 38.28 1 58 C-1.31 58.66 -3.62 59.32 -6 60 C-6.33 60.66 -6.66 61.32 -7 62 C-3.7 62 -0.4 62 3 62 C3 61.34 3 60.68 3 60 C3.66 60 4.32 60 5 60 C5.09765625 66.15234375 5.09765625 66.15234375 5 68 C4.67 68.33 4.34 68.66 4 69 C3.89572513 70.8037898 3.86145681 72.61166824 3.85473633 74.41845703 C3.84835648 75.57701202 3.84197662 76.73556702 3.83540344 77.92922974 C3.83429062 79.19266205 3.8331778 80.45609436 3.83203125 81.7578125 C3.82870285 83.04936249 3.82537445 84.34091248 3.82194519 85.67160034 C3.81594445 88.41388787 3.81410602 91.15614386 3.81469727 93.8984375 C3.8147984 97.39869556 3.80120105 100.89874855 3.78392506 104.39895821 C3.77006459 107.74774572 3.7707141 111.09649671 3.76953125 114.4453125 C3.76234573 115.69659943 3.75516022 116.94788635 3.74775696 118.23709106 C3.76351246 124.26693742 4.06320914 129.29565436 6 135 C6 136.32 6 137.64 6 139 C2.22639456 141.32221873 0.98800589 141 -4 141 C-3.67 151.89 -3.34 162.78 -3 174 C8.6983535 174.0952545 8.6983535 174.0952545 20.125 172.875 C20.91140869 172.74883301 21.69781738 172.62266602 22.50805664 172.49267578 C28.64484943 171.42493322 34.50368767 169.74936585 40.4375 167.875 C47.71711374 165.57843458 54.31728922 164.05879626 62 164 C63.39587471 163.95170219 64.79170552 163.90212572 66.1875 163.8515625 C73.96395875 163.63512537 80.80855594 163.76061079 88 167 C88.95261719 167.36351562 89.90523438 167.72703125 90.88671875 168.1015625 C98.3081921 170.98820834 104.97183508 174.49109072 111 179.7421875 C112.89224598 181.20668536 112.89224598 181.20668536 115.015625 180.859375 C117.23118638 179.89987992 118.86640307 178.75999093 120.75 177.25 C133.01774976 167.82367757 145.23724419 163.83278771 160.6875 163.75 C162.10192383 163.7190625 162.10192383 163.7190625 163.54492188 163.6875 C169.40501685 163.65527955 174.28492973 164.42221417 179.84057617 166.28271484 C182.31163452 167.1035141 184.73836985 167.56254487 187.3125 167.9375 C191.51293459 168.64250947 195.44421445 169.69926878 199.5 171 C211.15228956 174.6695812 220.26998603 175 233 175 C233 127.48 233 79.96 233 31 C237.62 31 242.24 31 247 31 C248.81422512 32.81422512 248.13415145 35.62625497 248.14044189 38.06712341 C248.14615204 39.38662994 248.15186218 40.70613647 248.15774536 42.06562805 C248.15899085 43.54171744 248.16011591 45.01780693 248.16113281 46.49389648 C248.1657585 48.03757853 248.17078282 49.58125942 248.17617798 51.12493896 C248.18932702 55.32942496 248.19575166 59.53389496 248.20018864 63.73839831 C248.203115 66.36212618 248.20721893 68.98584962 248.21169281 71.60957527 C248.2253736 79.80976449 248.23503772 88.00994367 248.2388947 96.21014351 C248.24337872 105.69271123 248.26094009 115.17513505 248.2898953 124.65765899 C248.31147211 131.97654883 248.32159681 139.29539806 248.32293582 146.61431938 C248.32398662 150.99071751 248.32995258 155.36698047 248.34775543 159.74334526 C248.36416747 163.85798624 248.36642536 167.97238946 248.35761642 172.08705139 C248.35684237 173.60040992 248.36123686 175.11378087 248.37107468 176.62710762 C248.38368419 178.68699064 248.37797887 180.74601739 248.36749268 182.80589294 C248.36895924 183.96052253 248.3704258 185.11515211 248.3719368 186.30477047 C248.24919765 187.19419621 248.12645851 188.08362196 248 189 C238.13607197 195.57595202 218.77577703 189.14023438 208 187 C202.04398073 185.73350414 196.10221227 184.40708759 190.17333984 183.01904297 C167.27761186 177.7093372 144.97086368 179.699043 124.3046875 191.50390625 C122.21705971 192.85909513 120.41062167 194.27786835 118.5625 195.9375 C116 198 116 198 114.1171875 197.828125 C111.56903004 196.83142872 109.73731884 195.47387089 107.5625 193.8125 C90.02602362 181.27173055 68.84712971 177.69526096 47.8125 181.125 C40.07340603 182.45187074 32.45150072 184.25749482 24.8125 186.0625 C11.49418164 189.20500305 -2.21249124 192.40351886 -16 191 C-16.99 190.34 -17.98 189.68 -19 189 C-19.3719368 186.3784132 -19.3719368 186.3784132 -19.36749268 182.98466492 C-19.37306183 181.70177582 -19.37863098 180.41888672 -19.3843689 179.09712219 C-19.37534539 177.66720399 -19.36602757 176.23728762 -19.35644531 174.80737305 C-19.35723582 173.30781942 -19.35933195 171.808266 -19.36264038 170.30871582 C-19.36778671 166.22795302 -19.35421294 162.14744122 -19.33711338 158.06671882 C-19.32210183 153.79959704 -19.32325192 149.53247885 -19.32244873 145.26533508 C-19.31875243 138.09522201 -19.3037699 130.92520446 -19.28125 123.75512695 C-19.25241115 114.55447273 -19.24203019 105.35389561 -19.2375679 96.1532011 C-19.2335845 88.24502821 -19.22108015 80.33687205 -19.20722103 72.42871118 C-19.20312487 69.88663982 -19.2001977 67.34456906 -19.19742584 64.80249596 C-19.1925239 60.80443167 -19.18230536 56.80641381 -19.16798782 52.8083725 C-19.16347353 51.34143557 -19.16062822 49.8744924 -19.15958023 48.4075489 C-19.15782785 46.40378522 -19.14930215 44.40003087 -19.14044189 42.39628601 C-19.13746723 41.275218 -19.13449257 40.15414999 -19.13142776 38.99911022 C-19 36 -19 36 -18 31 C-13.71 31 -9.42 31 -5 31 C-5 39.58 -5 48.16 -5 57 C-3.35 57 -1.7 57 0 57 C0 38.19 0 19.38 0 0 Z " fill="#0E709C" transform="translate(42,69)"/>
<path d="M0 0 C4.62 0 9.24 0 14 0 C15.81422512 1.81422512 15.13415145 4.62625497 15.14044189 7.06712341 C15.14615204 8.38662994 15.15186218 9.70613647 15.15774536 11.06562805 C15.15899085 12.54171744 15.16011591 14.01780693 15.16113281 15.49389648 C15.1657585 17.03757853 15.17078282 18.58125942 15.17617798 20.12493896 C15.18932702 24.32942496 15.19575166 28.53389496 15.20018864 32.73839831 C15.203115 35.36212618 15.20721893 37.98584962 15.21169281 40.60957527 C15.2253736 48.80976449 15.23503772 57.00994367 15.2388947 65.21014351 C15.24337872 74.69271123 15.26094009 84.17513505 15.2898953 93.65765899 C15.31147211 100.97654883 15.32159681 108.29539806 15.32293582 115.61431938 C15.32398662 119.99071751 15.32995258 124.36698047 15.34775543 128.74334526 C15.36416747 132.85798624 15.36642536 136.97238946 15.35761642 141.08705139 C15.35684237 142.60040992 15.36123686 144.11378087 15.37107468 145.62710762 C15.38368419 147.68699064 15.37797887 149.74601739 15.36749268 151.80589294 C15.36895924 152.96052253 15.3704258 154.11515211 15.3719368 155.30477047 C15.24919765 156.19419621 15.12645851 157.08362196 15 158 C5.13607197 164.57595202 -14.22422297 158.14023438 -25 156 C-30.95601927 154.73350414 -36.89778773 153.40708759 -42.82666016 152.01904297 C-65.8773095 146.67340968 -87.91310297 148.7599873 -108.62890625 160.703125 C-112.39138848 162.76102302 -115.95115007 164.27687161 -120.3125 163.6875 C-122 163 -122 163 -124 162 C-124 161.01 -124 160.02 -124 159 C-124.66 158.67 -125.32 158.34 -126 158 C-123.03 156.02 -123.03 156.02 -120 154 C-120.33 153.34 -120.66 152.68 -121 152 C-119.68 152 -118.36 152 -117 152 C-116.65388672 151.12021484 -116.65388672 151.12021484 -116.30078125 150.22265625 C-114.6690015 147.43441998 -112.86305918 146.2305659 -110.1875 144.4375 C-108.90939453 143.56931641 -108.90939453 143.56931641 -107.60546875 142.68359375 C-103.13341658 139.79385689 -99.0889961 137.52373088 -94 135.875 C-92.4840625 135.37613281 -92.4840625 135.37613281 -90.9375 134.8671875 C-84.65970333 133.01390178 -78.81935523 132.78486594 -72.3125 132.75 C-71.36955078 132.729375 -70.42660156 132.70875 -69.45507812 132.6875 C-63.59498315 132.65527955 -58.71507027 133.42221417 -53.15942383 135.28271484 C-50.68836548 136.1035141 -48.26163015 136.56254487 -45.6875 136.9375 C-41.48706541 137.64250947 -37.55578555 138.69926878 -33.5 140 C-21.84771044 143.6695812 -12.73001397 144 0 144 C0 96.48 0 48.96 0 0 Z " fill="#0D6F9B" transform="translate(275,100)"/>
<path d="M0 0 C2.75927344 2.75927344 2.51783243 5.21154052 3 9 C3.33 9.33 3.66 9.66 4 10 C4.22839355 11.67100755 4.39514395 13.35052801 4.53515625 15.03125 C4.62216797 16.07023437 4.70917969 17.10921875 4.79882812 18.1796875 C4.88583984 19.27539062 4.97285156 20.37109375 5.0625 21.5 C5.19881836 23.09714844 5.19881836 23.09714844 5.33789062 24.7265625 C5.83743268 30.84125768 6.09665691 36.86550783 6 43 C-1.96051268 47.19476117 -10.05224614 50.78785784 -18.41137695 54.10742188 C-22.91695624 55.94108246 -26.18904058 57.94120362 -30 61 C-33.34765625 62.2734375 -33.34765625 62.2734375 -37.0625 63.375 C-43.06238372 65.23892773 -48.49070252 67.58947991 -54.0703125 70.5078125 C-66.81675393 77 -66.81675393 77 -72 77 C-72 77.66 -72 78.32 -72 79 C-83.27432989 80.12244435 -91.89373848 75.14835744 -101.6640625 70.13671875 C-105.03047199 68.49854958 -108.47011843 67.24199537 -112 66 C-112 65.34 -112 64.68 -112 64 C-113.09248047 63.80639893 -113.09248047 63.80639893 -114.20703125 63.60888672 C-116.85186243 63.03229503 -119.17704968 62.25836181 -121.6875 61.2578125 C-122.55117187 60.91363281 -123.41484375 60.56945312 -124.3046875 60.21484375 C-125.19414063 59.85519531 -126.08359375 59.49554688 -127 59.125 C-127.88945313 58.77308594 -128.77890625 58.42117187 -129.6953125 58.05859375 C-134.04025883 56.31413022 -138.01633532 54.47764511 -142 52 C-144.9319515 50.7257595 -147.89461643 49.5547405 -150.8671875 48.37890625 C-154.36715562 46.83839659 -157.67984153 44.89723341 -161 43 C-160.67 36.4 -160.34 29.8 -160 23 C-159.67 23 -159.34 23 -159 23 C-159 24.65 -159 26.3 -159 28 C-158.28457031 28.12246094 -157.56914062 28.24492187 -156.83203125 28.37109375 C-147.98511284 30.33571977 -139.72056544 35.03561489 -131.69604492 39.14477539 C-127.5280463 41.2737531 -123.31402805 43.17731076 -119 45 C-116.95540253 45.95206447 -114.91371007 46.91039293 -112.875 47.875 C-108.34764804 49.98220068 -103.80311296 51.87879194 -99.125 53.625 C-94.41318287 55.3905122 -90.29671807 57.40406616 -86 60 C-82.12460051 61.89043877 -79.30796017 62.56897587 -75 62 C-72.46932988 60.89913657 -70.05746868 59.64758364 -67.62109375 58.3515625 C-65.21518135 57.11095789 -62.83822195 56.09158245 -60.3125 55.125 C-55.12831318 53.130448 -50.1522796 50.74865327 -45.17700195 48.28564453 C-41.77991704 46.64807539 -39.85599264 46 -36 46 C-36 45.34 -36 44.68 -36 44 C-35.17757812 43.69707031 -34.35515625 43.39414063 -33.5078125 43.08203125 C-27.42114053 40.79777214 -21.5370824 38.39318177 -15.765625 35.40234375 C-12.17325463 33.58078872 -8.52794462 31.88354055 -4.875 30.1875 C-4.19840332 29.87312988 -3.52180664 29.55875977 -2.82470703 29.23486328 C-1.21698889 28.48879259 0.3914298 27.74423181 2 27 C1.50804657 17.97736473 0.99820304 8.98382735 0 0 Z " fill="#3FB9F1" transform="translate(234,116)"/>
<path d="M0 0 C-1.8125 3 -1.8125 3 -4 6 C-4.99 6 -5.98 6 -7 6 C-7 6.66 -7 7.32 -7 8 C-12.21312933 9.42898347 -17.42757585 10.85301634 -22.64331055 12.27246094 C-24.41777106 12.75612437 -26.19186275 13.241143 -27.96557617 13.72753906 C-30.51385484 14.42608818 -33.06341632 15.11976676 -35.61328125 15.8125 C-36.80405022 16.14060669 -36.80405022 16.14060669 -38.01887512 16.4753418 C-41.09442397 17.30682556 -43.79862925 18 -47 18 C-47.33 18.99 -47.66 19.98 -48 21 C-48 20.34 -48 19.68 -48 19 C-48.70382813 19.19110352 -49.40765625 19.38220703 -50.1328125 19.57910156 C-62.12741303 22.83220634 -74.11845127 26.06512786 -86.1875 29.03125 C-91.38683829 30.35239334 -96.55077758 31.79138263 -101.71289062 33.25048828 C-114.4283175 36.83726429 -124.61392149 38.33855785 -137.4453125 33.83203125 C-142.22046343 32.27682154 -147.1175741 31.16484273 -152 30 C-152 29.34 -152 28.68 -152 28 C-153.45019531 28.06960937 -153.45019531 28.06960937 -154.9296875 28.140625 C-159.54341393 28.13599042 -163.70637598 26.98606947 -168.125 25.75 C-168.95233643 25.52546143 -169.77967285 25.30092285 -170.63208008 25.06958008 C-177.46788473 23.19623983 -184.25184422 21.16861739 -191 19 C-191 21.31 -191 23.62 -191 26 C-191.33 26 -191.66 26 -192 26 C-192 23.03 -192 20.06 -192 17 C-194.31 16.67 -196.62 16.34 -199 16 C-199 15.34 -199 14.68 -199 14 C-196 12 -196 12 -192.875 12.1875 C-190.00975716 12.78827672 -187.59483001 13.45756125 -184.875 14.4375 C-181.26895107 15.70416257 -177.85045243 16.3747044 -174.0625 16.875 C-163.9333606 18.29141315 -153.93841425 21.18587374 -144.3125 24.625 C-139.13498774 26.44022342 -133.73265538 27.33203476 -128.35546875 28.3515625 C-125 29 -125 29 -122.90625 29.625 C-114.70651516 31.23806259 -105.05141799 27.24145519 -97.23852539 24.81787109 C-93.08164587 23.54712733 -89.06931236 22.59340619 -84.75 22 C-80.54896461 21.39419031 -77.04124231 20.3217975 -73.125 18.6875 C-66.13832389 15.81463318 -58.98029063 14.25951341 -51.60205078 12.69995117 C-47.21283417 11.76639766 -43.11988265 10.82932171 -39 9 C-34.0353752 7.64601142 -29.04034661 6.59752305 -24 5.5625 C-18.73740538 4.45131979 -13.96021426 3.05895686 -9 1 C-5.8035914 -0.06546953 -3.34252724 -0.07427838 0 0 Z " fill="#034B6D" transform="translate(276,60)"/>
<path d="M0 0 C2 2 2 2 2.125 4.625 C2.08375 5.40875 2.0425 6.1925 2 7 C-1.44830192 9.11488236 -4.05530478 9.20053516 -8.05859375 9.08984375 C-9.25033203 9.06986328 -10.44207031 9.04988281 -11.66992188 9.02929688 C-14.14660493 8.9689526 -16.62318043 8.90398477 -19.09960938 8.83398438 C-26.3727764 8.7210107 -32.66683415 9.41931142 -39.70141602 11.23608398 C-45.64349926 12.61220555 -51.68357633 13.03715863 -57.75 13.5625 C-59.10015832 13.68602486 -60.45025532 13.81022178 -61.80029297 13.93505859 C-71.6073274 14.83189155 -81.42356016 15.63366595 -91.24511719 16.35375977 C-92.19805664 16.42522217 -93.15099609 16.49668457 -94.1328125 16.5703125 C-94.95668457 16.62977051 -95.78055664 16.68922852 -96.62939453 16.75048828 C-99.10762795 17.01132809 -101.55646885 17.51129377 -104 18 C-108.95 18.33 -113.9 18.66 -119 19 C-119.33 37.81 -119.66 56.62 -120 76 C-121.65 76 -123.3 76 -125 76 C-125.18081734 55.31449585 -124.65615519 34.67237855 -124 14 C-121.67951947 12.83975973 -119.96974195 12.72264442 -117.38671875 12.5 C-116.46826172 12.4175 -115.54980469 12.335 -114.60351562 12.25 C-113.16008789 12.12625 -113.16008789 12.12625 -111.6875 12 C-109.7953572 11.83580049 -107.90342017 11.66920879 -106.01171875 11.5 C-105.17084717 11.4278125 -104.32997559 11.355625 -103.46362305 11.28125 C-100.93550673 10.99263738 -98.49188892 10.50879073 -96 10 C-94.02258486 9.84981657 -92.04294299 9.72781657 -90.0625 9.625 C-82.65098423 9.13976877 -75.34244879 8.1594911 -67.99243164 7.10400391 C-59.10289914 5.83349559 -50.36426087 4.82662676 -41.375 4.9375 C-40.65699219 4.94201172 -39.93898438 4.94652344 -39.19921875 4.95117188 C-37.46610792 4.96272595 -35.7330413 4.98064842 -34 5 C-34 4.34 -34 3.68 -34 3 C-29.83423084 2.49233064 -25.66726208 1.99525277 -21.5 1.5 C-20.32695312 1.35691406 -19.15390625 1.21382812 -17.9453125 1.06640625 C-5.69060598 -0.37937373 -5.69060598 -0.37937373 0 0 Z " fill="#021C29" transform="translate(162,50)"/>
<path d="M0 0 C0.33 0 0.66 0 1 0 C1 19.14 1 38.28 1 58 C-1.31 58.66 -3.62 59.32 -6 60 C-6.33 60.66 -6.66 61.32 -7 62 C-3.7 62 -0.4 62 3 62 C3 61.34 3 60.68 3 60 C3.66 60 4.32 60 5 60 C5.09765625 66.15234375 5.09765625 66.15234375 5 68 C4.505 68.495 4.505 68.495 4 69 C3.89572513 70.8037898 3.86145681 72.61166824 3.85473633 74.41845703 C3.84835648 75.57701202 3.84197662 76.73556702 3.83540344 77.92922974 C3.83429062 79.19266205 3.8331778 80.45609436 3.83203125 81.7578125 C3.82870285 83.04936249 3.82537445 84.34091248 3.82194519 85.67160034 C3.81594445 88.41388787 3.81410602 91.15614386 3.81469727 93.8984375 C3.8147984 97.39869556 3.80120105 100.89874855 3.78392506 104.39895821 C3.77006459 107.74774572 3.7707141 111.09649671 3.76953125 114.4453125 C3.76234573 115.69659943 3.75516022 116.94788635 3.74775696 118.23709106 C3.76351246 124.26693742 4.06320914 129.29565436 6 135 C6 136.32 6 137.64 6 139 C2.22639456 141.32221873 0.98800589 141 -4 141 C-3.67 151.89 -3.34 162.78 -3 174 C1.29 174.33 5.58 174.66 10 175 C10 175.33 10 175.66 10 176 C8.06257659 176.02703381 6.12504521 176.04641125 4.1875 176.0625 C3.10855469 176.07410156 2.02960937 176.08570313 0.91796875 176.09765625 C-2 176 -2 176 -5 175 C-5 163.45 -5 151.9 -5 140 C-6.32 139.67 -7.64 139.34 -9 139 C-10.12994328 136.1751418 -9.99867147 134.9959565 -9.03125 132.05151367 C-7.51829942 126.99942127 -7.79018131 121.96711132 -7.875 116.73828125 C-7.88257324 115.67006638 -7.89014648 114.6018515 -7.89794922 113.50126648 C-7.92228532 110.10484316 -7.95955392 106.70876734 -8 103.3125 C-8.0531401 98.8294364 -8.09312974 94.34654078 -8.125 89.86328125 C-8.14159668 88.83407059 -8.15819336 87.80485992 -8.17529297 86.74446106 C-8.18189941 85.78634018 -8.18850586 84.8282193 -8.1953125 83.84106445 C-8.21102295 82.58033867 -8.21102295 82.58033867 -8.22705078 81.29414368 C-7.97854972 78.78326429 -7.26068068 77.16636648 -6 75 C-3.69 75 -1.38 75 1 75 C1 73.68 1 72.36 1 71 C0.0925 71.0825 -0.815 71.165 -1.75 71.25 C-5 71 -5 71 -7.375 69.4375 C-9.5996142 66.1005787 -9.50030235 63.93094707 -9 60 C-7.875 58.0625 -7.875 58.0625 -6 57 C-4.02 57 -2.04 57 0 57 C0 38.19 0 19.38 0 0 Z " fill="#40BBF2" transform="translate(42,69)"/>
<path d="M0 0 C2.86524284 0.60077672 5.28016999 1.27006125 8 2.25 C11.60604893 3.51666257 15.02454757 4.1872044 18.8125 4.6875 C30.43058313 6.31212032 41.82845525 9.92575277 52.875 13.8125 C52.875 14.4725 52.875 15.1325 52.875 15.8125 C53.71804687 15.94527344 54.56109375 16.07804687 55.4296875 16.21484375 C56.52539062 16.39144531 57.62109375 16.56804687 58.75 16.75 C59.84054688 16.92402344 60.93109375 17.09804687 62.0546875 17.27734375 C64.875 17.8125 64.875 17.8125 66.875 18.8125 C69.38351581 18.85852781 71.86822123 18.85935568 74.375 18.8125 C81.60472973 18.67736486 81.60472973 18.67736486 83.875 19.8125 C84.98875 19.3175 86.1025 18.8225 87.25 18.3125 C91.1581866 16.69531934 91.2090114 16.89600285 94.875 17.8125 C96.47479084 17.07926253 98.07315018 16.342544 99.66015625 15.58203125 C104.19831894 14.00527984 109.1087585 14.03946388 113.875 13.8125 C110.54059885 16.0354341 107.87866492 16.71178596 104 17.6875 C97.85716038 19.25854151 91.81303679 21.03071463 85.77734375 22.98046875 C75.37149862 25.96357105 65.54043247 25.19553684 55.4296875 21.64453125 C50.65453657 20.08932154 45.7574259 18.97734273 40.875 17.8125 C40.875 17.1525 40.875 16.4925 40.875 15.8125 C39.42480469 15.88210937 39.42480469 15.88210937 37.9453125 15.953125 C33.33158607 15.94849042 29.16862402 14.79856947 24.75 13.5625 C23.92266357 13.33796143 23.09532715 13.11342285 22.24291992 12.88208008 C15.40711527 11.00873983 8.62315578 8.98111739 1.875 6.8125 C1.875 9.1225 1.875 11.4325 1.875 13.8125 C1.545 13.8125 1.215 13.8125 0.875 13.8125 C0.875 10.8425 0.875 7.8725 0.875 4.8125 C-1.435 4.4825 -3.745 4.1525 -6.125 3.8125 C-6.125 3.1525 -6.125 2.4925 -6.125 1.8125 C-3.125 -0.1875 -3.125 -0.1875 0 0 Z " fill="#073D54" transform="translate(83.125,72.1875)"/>
<path d="M0 0 C4.62 0 9.24 0 14 0 C15.81422512 1.81422512 15.13415145 4.62625497 15.14044189 7.06712341 C15.14615204 8.38662994 15.15186218 9.70613647 15.15774536 11.06562805 C15.15899085 12.54171744 15.16011591 14.01780693 15.16113281 15.49389648 C15.1657585 17.03757853 15.17078282 18.58125942 15.17617798 20.12493896 C15.18932702 24.32942496 15.19575166 28.53389496 15.20018864 32.73839831 C15.203115 35.36212618 15.20721893 37.98584962 15.21169281 40.60957527 C15.2253736 48.80976449 15.23503772 57.00994367 15.2388947 65.21014351 C15.24337872 74.69271123 15.26094009 84.17513505 15.2898953 93.65765899 C15.31147211 100.97654883 15.32159681 108.29539806 15.32293582 115.61431938 C15.32398662 119.99071751 15.32995258 124.36698047 15.34775543 128.74334526 C15.36416747 132.85798624 15.36642536 136.97238946 15.35761642 141.08705139 C15.35684237 142.60040992 15.36123686 144.11378087 15.37107468 145.62710762 C15.38368419 147.68699064 15.37797887 149.74601739 15.36749268 151.80589294 C15.36895924 152.96052253 15.3704258 154.11515211 15.3719368 155.30477047 C15.24919765 156.19419621 15.12645851 157.08362196 15 158 C6.09613233 163.93591178 -10.09708838 158.75679953 -20 157 C-20 156.67 -20 156.34 -20 156 C-16.1872846 156.14050889 -12.37488784 156.28838734 -8.5625 156.4375 C-7.49322266 156.47681641 -6.42394531 156.51613281 -5.32226562 156.55664062 C-4.26845703 156.59853516 -3.21464844 156.64042969 -2.12890625 156.68359375 C-0.69140015 156.73858032 -0.69140015 156.73858032 0.77514648 156.79467773 C4.8615822 157.05485583 8.9303344 157.54781493 13 158 C13 106.19 13 54.38 13 1 C9.04 1 5.08 1 1 1 C1 48.19 1 95.38 1 144 C0.67 144 0.34 144 0 144 C0 96.48 0 48.96 0 0 Z " fill="#4B94B5" transform="translate(275,100)"/>
<path d="M0 0 C2 2 2 2 2.125 4.625 C2.08375 5.40875 2.0425 6.1925 2 7 C-1.44830192 9.11488236 -4.05530478 9.20053516 -8.05859375 9.08984375 C-9.25033203 9.06986328 -10.44207031 9.04988281 -11.66992188 9.02929688 C-14.14660493 8.9689526 -16.62318043 8.90398477 -19.09960938 8.83398438 C-26.35020698 8.72136127 -32.61565201 9.41404449 -39.62670898 11.22729492 C-45.27852119 12.52193092 -51.02051275 12.9986688 -56.78588867 13.50805664 C-58.82899078 13.68896015 -60.87046227 13.88348951 -62.91210938 14.08007812 C-69.29742626 14.67194909 -75.58694236 15.17243817 -82 15 C-82 14.34 -82 13.68 -82 13 C-77.50034522 12.66189644 -73.00022839 12.33037391 -68.5 12 C-66.59734375 11.85691406 -66.59734375 11.85691406 -64.65625 11.7109375 C-58.4204271 11.25624208 -52.25261544 10.87368454 -46 11 C-46 10.34 -46 9.68 -46 9 C-45.34 8.34 -44.68 7.68 -44 7 C-47.3753363 7.30893366 -50.75019811 7.62278633 -54.125 7.9375 C-55.07632813 8.02451172 -56.02765625 8.11152344 -57.0078125 8.20117188 C-60.8041077 8.55707455 -64.55193624 8.9239137 -68.3125 9.5625 C-71.21248034 10.03458982 -73.93936468 10.09830043 -76.875 10.0625 C-77.84179688 10.05347656 -78.80859375 10.04445313 -79.8046875 10.03515625 C-80.52914062 10.02355469 -81.25359375 10.01195312 -82 10 C-82 9.67 -82 9.34 -82 9 C-78.54209039 8.51774365 -75.08359999 8.03977792 -71.625 7.5625 C-70.65949219 7.42779297 -69.69398437 7.29308594 -68.69921875 7.15429688 C-59.57334216 5.89872325 -50.59663357 4.82376069 -41.375 4.9375 C-40.65699219 4.94201172 -39.93898437 4.94652344 -39.19921875 4.95117188 C-37.46610792 4.96272595 -35.7330413 4.98064842 -34 5 C-34 4.34 -34 3.68 -34 3 C-29.83423084 2.49233064 -25.66726208 1.99525277 -21.5 1.5 C-20.32695312 1.35691406 -19.15390625 1.21382812 -17.9453125 1.06640625 C-5.69060598 -0.37937373 -5.69060598 -0.37937373 0 0 Z " fill="#02273A" transform="translate(162,50)"/>
<path d="M0 0 C0.33 0 0.66 0 1 0 C1.82744249 5.86571333 2.19773829 11.61179619 2.31640625 17.53125 C2.33718735 18.40777222 2.35796844 19.28429443 2.37937927 20.18737793 C2.44420883 22.95818042 2.50344658 25.72906901 2.5625 28.5 C2.60574873 30.39063352 2.64936493 32.28125868 2.69335938 34.171875 C2.79982085 38.78116416 2.90127119 43.39053899 3 48 C1.02 48 -0.96 48 -3 48 C-2.67 58.89 -2.34 69.78 -2 81 C2.29 81.33 6.58 81.66 11 82 C11 82.33 11 82.66 11 83 C9.06257659 83.02703381 7.12504521 83.04641125 5.1875 83.0625 C4.10855469 83.07410156 3.02960937 83.08570313 1.91796875 83.09765625 C-1 83 -1 83 -4 82 C-4 70.45 -4 58.9 -4 47 C-5.32 46.67 -6.64 46.34 -8 46 C-9.14216211 43.14459472 -8.97856562 41.93009367 -8.05859375 38.9296875 C-6.73598814 34.54254979 -6.58975003 30.24386068 -6.4375 25.6875 C-6.12177558 17.24355116 -6.12177558 17.24355116 -5 15 C-4.34 14.67 -3.68 14.34 -3 14 C-1.35314539 10.70629079 -1.54605834 7.06997968 -1.28125 3.43359375 C-1 1 -1 1 0 0 Z " fill="#3BABDF" transform="translate(41,162)"/>
<path d="M0 0 C-1.8125 3 -1.8125 3 -4 6 C-4.99 6 -5.98 6 -7 6 C-7 6.66 -7 7.32 -7 8 C-12.21312933 9.42898347 -17.42757585 10.85301634 -22.64331055 12.27246094 C-24.41777106 12.75612437 -26.19186275 13.241143 -27.96557617 13.72753906 C-30.51385484 14.42608818 -33.06341632 15.11976676 -35.61328125 15.8125 C-36.80405022 16.14060669 -36.80405022 16.14060669 -38.01887512 16.4753418 C-41.09442397 17.30682556 -43.79862925 18 -47 18 C-47.33 18.99 -47.66 19.98 -48 21 C-48 20.01 -48 19.02 -48 18 C-48.99 18 -49.98 18 -51 18 C-51 16.68 -51 15.36 -51 14 C-49.68 14 -48.36 14 -47 14 C-47 13.34 -47 12.68 -47 12 C-40.6377496 9.50054449 -34.35804675 7.68812433 -27.6640625 6.31640625 C-21.17467458 4.98116972 -15.1208955 3.54074908 -9 1 C-5.8035914 -0.06546953 -3.34252724 -0.07427838 0 0 Z " fill="#154D66" transform="translate(276,60)"/>
<path d="M0 0 C2.86524284 0.60077672 5.28016999 1.27006125 8 2.25 C11.60604893 3.51666257 15.02454757 4.1872044 18.8125 4.6875 C30.43058313 6.31212032 41.82845525 9.92575277 52.875 13.8125 C52.875 14.1425 52.875 14.4725 52.875 14.8125 C38.98719835 15.16359611 38.98719835 15.16359611 32.96484375 13.3046875 C30.26068697 12.66782067 27.64993575 12.6154808 24.875 12.5 C16.77461154 12.00502914 9.48355586 9.45937887 1.875 6.8125 C1.875 9.1225 1.875 11.4325 1.875 13.8125 C1.545 13.8125 1.215 13.8125 0.875 13.8125 C0.875 10.8425 0.875 7.8725 0.875 4.8125 C-1.435 4.4825 -3.745 4.1525 -6.125 3.8125 C-6.125 3.1525 -6.125 2.4925 -6.125 1.8125 C-3.125 -0.1875 -3.125 -0.1875 0 0 Z " fill="#053F59" transform="translate(83.125,72.1875)"/>
<path d="M0 0 C0.33 0 0.66 0 1 0 C1.01030746 1.28595062 1.02061493 2.57190125 1.03123474 3.89682007 C1.1288277 15.99291747 1.23154816 28.08896181 1.33933926 40.18497276 C1.39459463 46.40422132 1.4480188 52.62347456 1.49731445 58.84277344 C1.54491945 64.84039134 1.59726082 70.83795063 1.65294075 76.83549881 C1.67338185 79.12810438 1.69209197 81.42072603 1.70907402 83.71335983 C1.7330792 86.91492297 1.76313906 90.11637458 1.79467773 93.31787109 C1.8004332 94.27380661 1.80618866 95.22974213 1.81211853 96.21464539 C1.82190735 97.08405258 1.83169617 97.95345978 1.84178162 98.84921265 C1.84823417 99.60692648 1.85468672 100.36464031 1.8613348 101.14531517 C1.88915979 103.094389 1.88915979 103.094389 3 105 C1.68 105 0.36 105 -1 105 C-1.0236026 96.03464955 -1.04115079 87.06931044 -1.05181217 78.10393524 C-1.05693971 73.93695446 -1.06384219 69.76999554 -1.07543945 65.60302734 C-1.13477512 43.7130741 -0.8537688 21.87461542 0 0 Z " fill="#589AB3" transform="translate(24,153)"/>
<path d="M0 0 C0.33 0 0.66 0 1 0 C1 19.14 1 38.28 1 58 C-1.31 58.66 -3.62 59.32 -6 60 C-6.33 60.66 -6.66 61.32 -7 62 C-6.34 62.33 -5.68 62.66 -5 63 C-5.495 63.99 -5.495 63.99 -6 65 C-3.36 65 -0.72 65 2 65 C2 68.63 2 72.26 2 76 C-1.465 76.495 -1.465 76.495 -5 77 C-5.66 79.97 -6.32 82.94 -7 86 C-7.33 86 -7.66 86 -8 86 C-8.28571429 78.57142857 -8.28571429 78.57142857 -6 75 C-3.69 75 -1.38 75 1 75 C1 73.68 1 72.36 1 71 C0.0925 71.0825 -0.815 71.165 -1.75 71.25 C-5 71 -5 71 -7.375 69.4375 C-9.5996142 66.1005787 -9.50030235 63.93094707 -9 60 C-7.875 58.0625 -7.875 58.0625 -6 57 C-4.02 57 -2.04 57 0 57 C0 38.19 0 19.38 0 0 Z " fill="#4898BE" transform="translate(42,69)"/>
<path d="M0 0 C-0.474375 0.45375 -0.94875 0.9075 -1.4375 1.375 C-3.09027808 2.93258204 -3.09027808 2.93258204 -4 5 C-3.01 5.33 -2.02 5.66 -1 6 C-5.24777375 7.17487815 -9.49855674 8.338477 -13.75 9.5 C-14.9565625 9.83386719 -16.163125 10.16773437 -17.40625 10.51171875 C-19.14648438 10.98544922 -19.14648438 10.98544922 -20.921875 11.46875 C-21.99018555 11.76201172 -23.05849609 12.05527344 -24.15917969 12.35742188 C-27 13 -27 13 -31 13 C-30.4375 11.125 -30.4375 11.125 -29 9 C-26.68925595 8.25881795 -24.35188447 7.59793673 -22 7 C-21.195625 6.484375 -20.39125 5.96875 -19.5625 5.4375 C-16.03343589 3.45778111 -13.01817634 3.34052342 -9 3 C-9 2.34 -9 1.68 -9 1 C-5.8035914 -0.06546953 -3.34252724 -0.07427838 0 0 Z " fill="#05425C" transform="translate(229,73)"/>
<path d="M0 0 C-2.5654594 2.5654594 -4.47686668 2.54046087 -8 3 C-5.36 3.66 -2.72 4.32 0 5 C0 5.33 0 5.66 0 6 C-2.64 6 -5.28 6 -8 6 C-8 6.66 -8 7.32 -8 8 C-14.58911536 8.38591348 -20.05989283 7.63761056 -26.37109375 5.734375 C-29.91091119 4.74554041 -33.34618196 4.34469982 -37 4 C-37 3.67 -37 3.34 -37 3 C-35.61941406 2.92652344 -35.61941406 2.92652344 -34.2109375 2.8515625 C-26.42782718 2.39186759 -18.83537481 1.5922538 -11.12109375 0.41015625 C-7.35310391 -0.08501138 -3.79183342 -0.15167334 0 0 Z " fill="#08435F" transform="translate(80,65)"/>
<path d="M0 0 C6.11590377 -0.25685407 11.09427422 0.56028028 16.9375 2.3125 C18.11675049 2.65317505 18.11675049 2.65317505 19.31982422 3.00073242 C24.59165493 4.53748473 29.81951856 6.17723801 35 8 C35 8.33 35 8.66 35 9 C27.25953386 9.19568594 20.44093204 9.14399737 13 7 C10.00773599 6.57118736 7.01087211 6.26484523 4 6 C3.71125 5.195625 3.4225 4.39125 3.125 3.5625 C2.26737432 0.8673532 2.26737432 0.8673532 0 0 Z " fill="#034564" transform="translate(101,78)"/>
<path d="M0 0 C1.0725 -0.01675781 2.145 -0.03351562 3.25 -0.05078125 C4.61125 0.12904297 4.61125 0.12904297 6 0.3125 C8.46324069 4.00736103 8.38991688 5.94543092 8 10.3125 C6.9296875 12.01953125 6.9296875 12.01953125 5 13.3125 C1.64453125 13.60546875 1.64453125 13.60546875 -2.1875 13.5 C-3.45980469 13.47292969 -4.73210937 13.44585937 -6.04296875 13.41796875 C-7.50669922 13.36576172 -7.50669922 13.36576172 -9 13.3125 C-9.33 12.3225 -9.66 11.3325 -10 10.3125 C-10.75023437 10.3846875 -11.50046875 10.456875 -12.2734375 10.53125 C-18.87288627 11.12968868 -25.37457568 11.44442217 -32 11.3125 C-32 10.9825 -32 10.6525 -32 10.3125 C-27.73266342 9.49422804 -23.73643883 9.20512562 -19.39453125 9.25 C-17.54891602 9.26160156 -17.54891602 9.26160156 -15.66601562 9.2734375 C-14.39435547 9.28632812 -13.12269531 9.29921875 -11.8125 9.3125 C-9.27738605 9.33796574 -6.7422227 9.35901351 -4.20703125 9.375 C-2.52830933 9.39240234 -2.52830933 9.39240234 -0.81567383 9.41015625 C2.08126476 9.44271966 2.08126476 9.44271966 5 8.3125 C5.042721 6.64638095 5.04063832 4.97867115 5 3.3125 C3.91447634 1.99987429 3.91447634 1.99987429 1.27734375 2.21484375 C0.17519531 2.22644531 -0.92695313 2.23804688 -2.0625 2.25 C-3.16722656 2.25902344 -4.27195313 2.26804688 -5.41015625 2.27734375 C-6.26480469 2.28894531 -7.11945313 2.30054688 -8 2.3125 C-5.29921247 -0.38828753 -3.75964828 0.01355642 0 0 Z " fill="#064361" transform="translate(158,48.6875)"/>
<path d="M0 0 C2.12534659 0.14069196 4.25027529 0.28770921 6.375 0.4375 C8.15003906 0.55931641 8.15003906 0.55931641 9.9609375 0.68359375 C13 1 13 1 15 2 C17.204364 2.22950319 19.41392173 2.41075933 21.625 2.5625 C22.81351563 2.64628906 24.00203125 2.73007812 25.2265625 2.81640625 C26.59941406 2.90728516 26.59941406 2.90728516 28 3 C28 3.33 28 3.66 28 4 C23.05 4.33 18.1 4.66 13 5 C13 16.88 13 28.76 13 41 C12.67 41 12.34 41 12 41 C11.67 29.78 11.34 18.56 11 7 C8.69 6.34 6.38 5.68 4 5 C4 4.34 4 3.68 4 3 C2.68 2.67 1.36 2.34 0 2 C0 1.34 0 0.68 0 0 Z " fill="#06435E" transform="translate(25,59)"/>
<path d="M0 0 C3.05080946 3.05080946 2.35788708 6.62810779 2.4140625 10.7265625 C2.43342865 11.58937836 2.4527948 12.45219421 2.4727478 13.34115601 C2.53262204 16.10233616 2.57895998 18.86355784 2.625 21.625 C2.66317259 23.49481005 2.70222389 25.36460238 2.7421875 27.234375 C2.83832992 31.82277309 2.92233166 36.41125351 3 41 C1.35 41 -0.3 41 -2 41 C-1.84152588 40.01249756 -1.68305176 39.02499512 -1.51977539 38.00756836 C-0.94536178 33.97300714 -0.77973366 29.94931174 -0.68359375 25.87890625 C-0.6524221 24.76176491 -0.6524221 24.76176491 -0.62062073 23.62205505 C-0.5558179 21.26895375 -0.49656635 18.91575157 -0.4375 16.5625 C-0.3942487 14.95637024 -0.35063243 13.35025027 -0.30664062 11.74414062 C-0.20020878 7.82952751 -0.09875149 3.91481409 0 0 Z " fill="#1184B6" transform="translate(41,168)"/>
<path d="M0 0 C0.33 0 0.66 0 1 0 C1.01981934 0.78125244 1.03963867 1.56250488 1.06005859 2.36743164 C1.15575472 5.93277318 1.26525339 9.49756442 1.375 13.0625 C1.4059375 14.29162109 1.436875 15.52074219 1.46875 16.78710938 C1.66646896 22.89992047 2.06536273 28.20395256 4 34 C4 35.32 4 36.64 4 38 C2.02 38.495 2.02 38.495 0 39 C-0.78657301 34.14386853 -1.12839541 29.4877998 -1.1328125 24.5703125 C-1.13376923 23.89451141 -1.13472595 23.21871033 -1.13571167 22.52243042 C-1.13638679 21.10902817 -1.13457956 19.6956227 -1.13037109 18.28222656 C-1.12496255 16.10995672 -1.13036424 13.93788893 -1.13671875 11.765625 C-1.13605883 10.38802038 -1.13477947 9.01041588 -1.1328125 7.6328125 C-1.13168457 6.38387207 -1.13055664 5.13493164 -1.12939453 3.84814453 C-1 1 -1 1 0 0 Z " fill="#41B0E3" transform="translate(44,170)"/>
<path d="M0 0 C0 0.33 0 0.66 0 1 C-22.32274136 4.22318311 -22.32274136 4.22318311 -33.22265625 4.7890625 C-35.9470183 4.93376279 -35.9470183 4.93376279 -38.36035156 5.50268555 C-42.77992209 6.33534048 -47.20256908 6.18445937 -51.6875 6.1875 C-52.64978516 6.19974609 -53.61207031 6.21199219 -54.60351562 6.22460938 C-55.52197266 6.22654297 -56.44042969 6.22847656 -57.38671875 6.23046875 C-58.64295044 6.23663208 -58.64295044 6.23663208 -59.92456055 6.24291992 C-62 6 -62 6 -64 4 C-63.40461426 4.00523682 -62.80922852 4.01047363 -62.19580078 4.01586914 C-59.50554453 4.03661999 -56.81530511 4.04965407 -54.125 4.0625 C-53.18785156 4.07087891 -52.25070313 4.07925781 -51.28515625 4.08789062 C-50.38925781 4.09111328 -49.49335937 4.09433594 -48.5703125 4.09765625 C-47.74289551 4.10289307 -46.91547852 4.10812988 -46.06298828 4.11352539 C-43.93588243 4.13352138 -43.93588243 4.13352138 -42 3 C-39.6315157 2.7041484 -37.27866833 2.45636332 -34.90234375 2.24609375 C-34.19404922 2.18092056 -33.4857547 2.11574738 -32.7559967 2.04859924 C-31.25230705 1.91134278 -29.74842868 1.77614072 -28.24438477 1.64282227 C-25.9702733 1.44041696 -23.69707035 1.22949682 -21.42382812 1.01757812 C-14.2701766 0.36482848 -7.19103279 -0.18773411 0 0 Z " fill="#0C4F6F" transform="translate(102,56)"/>
<path d="M0 0 C2.75927344 2.75927344 2.51783243 5.21154052 3 9 C3.33 9.33 3.66 9.66 4 10 C5.66819672 25.26557377 5.66819672 25.26557377 2.34375 30.71484375 C-2.86195036 35.04987239 -8.34486 36.09725674 -15 36 C-12.23638453 33.23638453 -8.88667503 31.96885988 -5.375 30.375 C-4.66859375 30.05015625 -3.9621875 29.7253125 -3.234375 29.390625 C-1.49139455 28.58979614 0.25406965 27.79437707 2 27 C1.50804657 17.97736473 0.99820304 8.98382735 0 0 Z " fill="#488EAE" transform="translate(234,116)"/>
<path d="M0 0 C-3.732388 3.57011026 -8.0949989 4.10913442 -13 5 C-13 5.66 -13 6.32 -13 7 C-13.61746094 7.24234375 -14.23492187 7.4846875 -14.87109375 7.734375 C-21.8534432 10.49755743 -28.79028836 13.30760659 -35.4375 16.8125 C-36.283125 17.204375 -37.12875 17.59625 -38 18 C-38.66 17.67 -39.32 17.34 -40 17 C-39.67 16.34 -39.34 15.68 -39 15 C-36.4375 14.375 -36.4375 14.375 -34 14 C-34 13.34 -34 12.68 -34 12 C-30.7 11.34 -27.4 10.68 -24 10 C-24 9.34 -24 8.68 -24 8 C-22.43979133 7.34865075 -20.87671421 6.70417036 -19.3125 6.0625 C-18.00732422 5.52302734 -18.00732422 5.52302734 -16.67578125 4.97265625 C-14.11820735 4.0429688 -11.6778677 3.45837375 -9 3 C-9 2.34 -9 1.68 -9 1 C-5.8035914 -0.06546953 -3.34252724 -0.07427838 0 0 Z " fill="#033045" transform="translate(211,155)"/>
<path d="M0 0 C0.33 0 0.66 0 1 0 C1 2.64 1 5.28 1 8 C-8.06789017 12.53394508 -23.5141445 7.6828128 -33 6 C-33 5.67 -33 5.34 -33 5 C-29.1872846 5.14050889 -25.37488784 5.28838734 -21.5625 5.4375 C-19.95858398 5.49647461 -19.95858398 5.49647461 -18.32226562 5.55664062 C-12.16902064 5.80126504 -6.11085425 6.23534 0 7 C0 4.69 0 2.38 0 0 Z " fill="#478CAA" transform="translate(288,251)"/>
<path d="M0 0 C0 0.66 0 1.32 0 2 C1.8871875 2.0309375 1.8871875 2.0309375 3.8125 2.0625 C4.52019531 2.07410156 5.22789062 2.08570313 5.95703125 2.09765625 C8.20305461 2.08263217 8.20305461 2.08263217 11 1 C11 2.65 11 4.3 11 6 C4.35590042 6.21432579 -1.53205867 5.51233701 -8 4 C-7.67 3.01 -7.34 2.02 -7 1 C-4 0 -4 0 0 0 Z " fill="#011723" transform="translate(152,52)"/>
<path d="M0 0 C-0.875 2.4375 -0.875 2.4375 -3 5 C-6.31168116 5.85657327 -9.59071657 5.93974757 -13 6 C-13.80308594 6.01546875 -14.60617187 6.0309375 -15.43359375 6.046875 C-17.28908112 6.06010486 -19.14478354 6.03435586 -21 6 C-14.43237289 2.44253532 -7.47556953 -0.16612377 0 0 Z " fill="#03496B" transform="translate(276,60)"/>
<path d="M0 0 C0 0.66 0 1.32 0 2 C-2.59257669 2.86419223 -4.34037707 3.17580932 -7.01171875 3.31640625 C-8.14770508 3.37924805 -8.14770508 3.37924805 -9.30664062 3.44335938 C-10.09232422 3.48267578 -10.87800781 3.52199219 -11.6875 3.5625 C-12.48478516 3.60568359 -13.28207031 3.64886719 -14.10351562 3.69335938 C-16.06881447 3.79927368 -18.03438496 3.90012551 -20 4 C-20 3.34 -20 2.68 -20 2 C-20.66 1.67 -21.32 1.34 -22 1 C-18.70932284 0.63619983 -15.41737181 0.28560207 -12.125 -0.0625 C-11.18785156 -0.16626953 -10.25070313 -0.27003906 -9.28515625 -0.37695312 C-7.94130859 -0.51713867 -7.94130859 -0.51713867 -6.5703125 -0.66015625 C-5.32918701 -0.79369507 -5.32918701 -0.79369507 -4.06298828 -0.92993164 C-2 -1 -2 -1 0 0 Z " fill="#001522" transform="translate(119,57)"/>
<path d="M0 0 C0.75023437 0.24556641 0.75023437 0.24556641 1.515625 0.49609375 C4.9263468 1.1878911 8.28735757 1.10504665 11.75 1.0625 C12.44738281 1.05798828 13.14476562 1.05347656 13.86328125 1.04882812 C15.57555803 1.0371002 17.28779033 1.01916653 19 1 C19.33 1.99 19.66 2.98 20 4 C16.38132441 5.2062252 13.07493749 5.10816918 9.3125 5.0625 C8.61060547 5.05798828 7.90871094 5.05347656 7.18554688 5.04882812 C5.45699462 5.03706927 3.72848635 5.01913454 2 5 C1.34 3.35 0.68 1.7 0 0 Z " fill="#034361" transform="translate(146,90)"/>
<path d="M0 0 C0.66 0 1.32 0 2 0 C2.09765625 6.15234375 2.09765625 6.15234375 2 8 C1.67 8.33 1.34 8.66 1 9 C0.76807135 10.51469448 0.58784762 12.03754562 0.4375 13.5625 C0.35371094 14.38878906 0.26992188 15.21507812 0.18359375 16.06640625 C0.12300781 16.70449219 0.06242187 17.34257812 0 18 C-0.33 18 -0.66 18 -1 18 C-1 13.71 -1 9.42 -1 5 C-3.64 5 -6.28 5 -9 5 C-8.67 4.01 -8.34 3.02 -8 2 C-5.36 2 -2.72 2 0 2 C0 1.34 0 0.68 0 0 Z " fill="#52C0ED" transform="translate(45,129)"/>
<path d="M0 0 C7.19741851 0.77953113 14.37984859 1.65763313 21.5625 2.5625 C22.66658203 2.70107422 23.77066406 2.83964844 24.90820312 2.98242188 C27.60554039 3.32104863 30.30280357 3.66025361 33 4 C33 4.33 33 4.66 33 5 C25.3728297 5.24256019 17.89975582 4.94729142 10.3125 4.1875 C9.52246582 4.11740723 8.73243164 4.04731445 7.91845703 3.97509766 C5.67578125 3.73046875 5.67578125 3.73046875 2 3 C1.34 2.01 0.68 1.02 0 0 Z " fill="#BCE4F7" transform="translate(239,81)"/>
<path d="M0 0 C2.64 0 5.28 0 8 0 C7.67 0.99 7.34 1.98 7 3 C6.34 3 5.68 3 5 3 C5 3.66 5 4.32 5 5 C7.31 5.33 9.62 5.66 12 6 C7.93714243 7.63129887 4.79897816 6.29968777 0.75 5.0625 C-0.51328125 4.68222656 -1.7765625 4.30195312 -3.078125 3.91015625 C-4.04234375 3.60980469 -5.0065625 3.30945313 -6 3 C-6 2.67 -6 2.34 -6 2 C-4.02 2 -2.04 2 0 2 C0 1.34 0 0.68 0 0 Z " fill="#2A5D77" transform="translate(72,71)"/>
<path d="M0 0 C0.66 0.33 1.32 0.66 2 1 C-3.01372252 4.52913975 -6.83543922 6.61471495 -13 7 C-13.33 7.99 -13.66 8.98 -14 10 C-15.45792884 10.05399736 -16.91642712 10.09279177 -18.375 10.125 C-19.18710938 10.14820313 -19.99921875 10.17140625 -20.8359375 10.1953125 C-23 10 -23 10 -25 8 C-21.7 8 -18.4 8 -15 8 C-15 7.34 -15 6.68 -15 6 C-12.54524486 4.96971956 -10.08685649 3.95054496 -7.625 2.9375 C-6.92632812 2.64294922 -6.22765625 2.34839844 -5.5078125 2.04492188 C-3.69495092 1.30408902 -1.84876857 0.64603036 0 0 Z " fill="#7FD4FA" transform="translate(177,187)"/>
<path d="M0 0 C2.97 0 5.94 0 9 0 C9 12.21 9 24.42 9 37 C8.67 37 8.34 37 8 37 C7.67 25.78 7.34 14.56 7 3 C4.69 2.34 2.38 1.68 0 1 C0 0.67 0 0.34 0 0 Z " fill="#486068" transform="translate(29,63)"/>
<path d="M0 0 C-1.53720703 0.07347656 -1.53720703 0.07347656 -3.10546875 0.1484375 C-4.4661706 0.22351071 -5.82684644 0.29905655 -7.1875 0.375 C-7.86103516 0.4059375 -8.53457031 0.436875 -9.22851562 0.46875 C-13.24517533 0.70387154 -16.31758091 1.45736497 -20 3 C-22.45703125 3.1953125 -22.45703125 3.1953125 -24.8125 3.125 C-25.60269531 3.10695313 -26.39289063 3.08890625 -27.20703125 3.0703125 C-27.79871094 3.04710937 -28.39039063 3.02390625 -29 3 C-20.7750421 -1.49344494 -8.61413518 -4.82622306 0 0 Z " fill="#5D8EA5" transform="translate(165,27)"/>
<path d="M0 0 C4.18143548 0.63731916 7.56690991 2.05688573 11.375 3.875 C15.88626441 6.00517707 20.39849596 8.07378901 25 10 C20.98287028 11.60685189 17.93957783 10.43257376 14 9 C13 8 12 7 11 6 C8.69011685 5.25613932 6.35684056 4.57809297 4 4 C4 3.34 4 2.68 4 2 C2.68 2 1.36 2 0 2 C0 1.34 0 0.68 0 0 Z " fill="#3FAAD9" transform="translate(119,164)"/>
<path d="M0 0 C-0.66 0 -1.32 0 -2 0 C-2 0.66 -2 1.32 -2 2 C-3.32 1.67 -4.64 1.34 -6 1 C-6.33 2.32 -6.66 3.64 -7 5 C-10.71599191 5.20086443 -11.77208445 5.1519437 -15 3 C-15 3.66 -15 4.32 -15 5 C-17.64 5 -20.28 5 -23 5 C-19.36377208 2.94998375 -15.50428596 1.88938079 -11.5 0.8125 C-10.83613281 0.62236328 -10.17226562 0.43222656 -9.48828125 0.23632812 C-6.02469674 -0.70042976 -3.40419264 -1.36341389 0 0 Z " fill="#387998" transform="translate(105,39)"/>
<path d="M0 0 C1.00095703 -0.00128906 2.00191406 -0.00257813 3.03320312 -0.00390625 C4.07798828 -0.00003906 5.12277344 0.00382813 6.19921875 0.0078125 C7.74899414 0.00201172 7.74899414 0.00201172 9.33007812 -0.00390625 C14.28957472 0.00245616 19.01486022 0.07626487 23.88671875 1.1328125 C23.88671875 1.4628125 23.88671875 1.7928125 23.88671875 2.1328125 C22.60539062 2.12121094 21.3240625 2.10960937 20.00390625 2.09765625 C9.90621113 2.03505915 -0.05077125 2.19986455 -10.11328125 3.1328125 C-6.98229471 0.00182596 -4.22686387 0.005241 0 0 Z " fill="#4B8FAD" transform="translate(94.11328125,246.8671875)"/>
<path d="M0 0 C6.93 0 13.86 0 21 0 C20.34 0.66 19.68 1.32 19 2 C20.32 2.99 21.64 3.98 23 5 C17.81970092 4.29885571 12.69648064 3.41920353 7.5625 2.4375 C6.83095703 2.29892578 6.09941406 2.16035156 5.34570312 2.01757812 C3.56353682 1.6797819 1.78172998 1.34009012 0 1 C0 0.67 0 0.34 0 0 Z " fill="#305A6A" transform="translate(43,68)"/>
<path d="M0 0 C0 0.99 0 1.98 0 3 C-4.0527516 3.98248524 -7.83861737 4.08159574 -12 4 C-11.6875 2.0625 -11.6875 2.0625 -11 0 C-6.94952424 -1.35015859 -4.2079832 -0.62084998 0 0 Z " fill="#064462" transform="translate(288,59)"/>
<path d="M0 0 C0.33 0 0.66 0 1 0 C1.01981934 0.59949463 1.03963867 1.19898926 1.06005859 1.81665039 C1.15605003 4.56566471 1.26542505 7.31399493 1.375 10.0625 C1.4059375 11.00544922 1.436875 11.94839844 1.46875 12.91992188 C1.69410799 18.30973379 2.39060734 22.86433643 4 28 C4 29.32 4 30.64 4 32 C2.515 32.495 2.515 32.495 1 33 C-0.46560818 22.06028181 -0.09470423 11.01045894 0 0 Z " fill="#67C4F0" transform="translate(44,176)"/>
<path d="M0 0 C0.639375 0.2475 1.27875 0.495 1.9375 0.75 C2.5975 0.915 3.2575 1.08 3.9375 1.25 C4.5975 1.415 5.2575 1.58 5.9375 1.75 C6.989375 2.01296875 6.989375 2.01296875 8.0625 2.28125 C8.68125 2.4359375 9.3 2.590625 9.9375 2.75 C8.19114835 3.28293835 6.44022348 3.80090663 4.6875 4.3125 C3.71296875 4.60253906 2.7384375 4.89257812 1.734375 5.19140625 C-1.06275684 5.7500513 -2.44960234 5.80787671 -5.0625 4.75 C-5.7225 4.09 -6.3825 3.43 -7.0625 2.75 C-2.64144737 -0.32017544 -2.64144737 -0.32017544 0 0 Z " fill="#20556E" transform="translate(244.0625,69.25)"/>
<path d="M0 0 C-0.99 0.66 -1.98 1.32 -3 2 C-2.01 2.66 -1.02 3.32 0 4 C-4.29 3.67 -8.58 3.34 -13 3 C-12.04134491 5.33075929 -12.04134491 5.33075929 -9 7 C-10.65 6.67 -12.3 6.34 -14 6 C-14 4.68 -14 3.36 -14 2 C-12.42085985 1.46658816 -10.83645613 0.94874237 -9.25 0.4375 C-8.36828125 0.14746094 -7.4865625 -0.14257812 -6.578125 -0.44140625 C-3.92165684 -1.01697435 -2.52968894 -0.89248371 0 0 Z " fill="#2A5F76" transform="translate(38,56)"/>
<path d="M0 0 C0.33 0 0.66 0 1 0 C1.0270043 1.45823212 1.04639787 2.91660675 1.0625 4.375 C1.07410156 5.18710938 1.08570312 5.99921875 1.09765625 6.8359375 C1 9 1 9 0 11 C1.66666667 11.33333333 3.33333333 11.66666667 5 12 C6.66666667 12.33333333 8.33333333 12.66666667 10 13 C10 13.66 10 14.32 10 15 C12.97 15.495 12.97 15.495 16 16 C16 16.66 16 17.32 16 18 C11.0017493 16.89869052 7.34055021 15.7731293 3 13 C1.68 12.67 0.36 12.34 -1 12 C-0.67 8.04 -0.34 4.08 0 0 Z " fill="#144259" transform="translate(76,132)"/>
<path d="M0 0 C0 0.66 0 1.32 0 2 C-1.5778125 2.433125 -1.5778125 2.433125 -3.1875 2.875 C-6.86369 3.87083212 -6.86369 3.87083212 -9.6875 5.1875 C-12.28435533 6.09990863 -13.45722622 5.94176807 -16 5 C-12.30638378 -0.54042434 -6.22026554 -0.25388839 0 0 Z " fill="#034462" transform="translate(190,85)"/>
<path d="M0 0 C-0.79664063 0.38091797 -0.79664063 0.38091797 -1.609375 0.76953125 C-6.00449805 2.87379181 -6.00449805 2.87379181 -10 5.625 C-13.08939506 7.7489591 -16.35147738 8.20948677 -20 9 C-17.56194444 4.88578124 -14.26844018 3.43248733 -10 1.6875 C-9.3709375 1.41099609 -8.741875 1.13449219 -8.09375 0.84960938 C-3.38808548 -1.12936183 -3.38808548 -1.12936183 0 0 Z " fill="#55C0EE" transform="translate(216,170)"/>
<path d="M0 0 C2.31 0 4.62 0 7 0 C7 1.98 7 3.96 7 6 C4.69 6.33 2.38 6.66 0 7 C-0.66 9.97 -1.32 12.94 -2 16 C-2.33 16 -2.66 16 -3 16 C-3.28571429 8.57142857 -3.28571429 8.57142857 -1 5 C1.31 5 3.62 5 6 5 C6 3.68 6 2.36 6 1 C4.02 1 2.04 1 0 1 C0 0.67 0 0.34 0 0 Z " fill="#2DA8DF" transform="translate(37,139)"/>
<path d="M0 0 C7.46590154 0.59727212 18.58887441 1.58887441 24 7 C18.20140805 6.43189471 13.02313406 5.26320265 7.5 3.4375 C6.77296875 3.20353516 6.0459375 2.96957031 5.296875 2.72851562 C3.52919739 2.15867219 1.76429031 1.58024596 0 1 C0 0.67 0 0.34 0 0 Z " fill="#054E71" transform="translate(112,80)"/>
<path d="M0 0 C-1.4096347 0.70180531 -2.82807641 1.38593958 -4.25 2.0625 C-5.03890625 2.44535156 -5.8278125 2.82820313 -6.640625 3.22265625 C-9.25993522 4.08564091 -10.44855176 3.93045933 -13 3 C-13 3.66 -13 4.32 -13 5 C-16.3 5 -19.6 5 -23 5 C-19.20854863 3.10427432 -15.5621362 1.90493857 -11.5 0.8125 C-10.83613281 0.62236328 -10.17226562 0.43222656 -9.48828125 0.23632812 C-6.02469674 -0.70042976 -3.40419264 -1.36341389 0 0 Z " fill="#417F98" transform="translate(136,31)"/>
<path d="M0 0 C0.99 0.99 1.98 1.98 3 3 C6.10839021 3.7269226 6.10839021 3.7269226 9 4 C9 5.32 9 6.64 9 8 C6.36 8.33 3.72 8.66 1 9 C0.67 6.03 0.34 3.06 0 0 Z " fill="#108DC6" transform="translate(34,136)"/>
<path d="M0 0 C0 0.99 0 1.98 0 3 C-0.78375 3.28875 -1.5675 3.5775 -2.375 3.875 C-5.09671632 4.84912254 -5.09671632 4.84912254 -7 7 C-9.68839385 7.26991906 -12.29141936 7.08737357 -15 7 C-13.58147812 4.16295624 -11.95634791 4.09256336 -9 3 C-7.76896961 2.46258243 -6.53984886 1.92077308 -5.3125 1.375 C-2 0 -2 0 0 0 Z " fill="#3A9ECC" transform="translate(188,166)"/>
<path d="M0 0 C2.64 0 5.28 0 8 0 C8.33 0.66 8.66 1.32 9 2 C8.67 2.66 8.34 3.32 8 4 C4.7 4 1.4 4 -2 4 C-1.34 2.68 -0.68 1.36 0 0 Z " fill="#83D4F7" transform="translate(37,127)"/>
<path d="M0 0 C3.66172475 0.62678171 6.8818995 1.64451846 10.3125 3.0625 C11.19550781 3.42472656 12.07851562 3.78695312 12.98828125 4.16015625 C13.65214844 4.43730469 14.31601563 4.71445313 15 5 C15 5.33 15 5.66 15 6 C11.7 6 8.4 6 5 6 C4.67 5.34 4.34 4.68 4 4 C2.68 4 1.36 4 0 4 C0 2.68 0 1.36 0 0 Z " fill="#3BA4D3" transform="translate(75,144)"/>
<path d="M0 0 C0.33 0.66 0.66 1.32 1 2 C6.94 1.505 6.94 1.505 13 1 C9.73795243 2.63102378 6.97278684 3.70958612 3.5 4.6875 C2.5615625 4.95949219 1.623125 5.23148437 0.65625 5.51171875 C-2.00766466 6.00140894 -3.47611372 5.88693174 -6 5 C-5.01 4.67 -4.02 4.34 -3 4 C-1.31461399 2.00334686 -1.31461399 2.00334686 0 0 Z " fill="#356478" transform="translate(275,61)"/>
<path d="M0 0 C1.65 0 3.3 0 5 0 C5 0.99 5 1.98 5 3 C6.36125 3.2165625 6.36125 3.2165625 7.75 3.4375 C10.21476956 3.86409473 12.58847107 4.35074221 15 5 C13.75 6.5625 13.75 6.5625 12 8 C8.58488355 7.58758128 6.43538269 6.06873926 3.75 4 C3.04359375 3.46375 2.3371875 2.9275 1.609375 2.375 C1.07828125 1.92125 0.5471875 1.4675 0 1 C0 0.67 0 0.34 0 0 Z " fill="#4388A5" transform="translate(146,259)"/>
<path d="M0 0 C6.33393082 -0.34548714 11.10261508 0.70657253 17 3 C17 3.33 17 3.66 17 4 C5.47835991 3.22095672 5.47835991 3.22095672 0 1 C0 0.67 0 0.34 0 0 Z " fill="#07364B" transform="translate(106,84)"/>
<path d="M0 0 C6.86036401 0.65965039 13.34443923 2.2362764 20 4 C20 4.33 20 4.66 20 5 C13.84765625 5.09765625 13.84765625 5.09765625 12 5 C11.67 4.67 11.34 4.34 11 4 C8.71191198 3.75820596 6.42534185 3.61663401 4.12890625 3.4765625 C2 3 2 3 0 0 Z " fill="#48829B" transform="translate(165,27)"/>
<path d="M0 0 C1.62600941 0.0870005 3.25089678 0.1951781 4.875 0.3125 C5.77992188 0.37050781 6.68484375 0.42851562 7.6171875 0.48828125 C10 1 10 1 12 4 C12.99 4.33 13.98 4.66 15 5 C15 5.66 15 6.32 15 7 C9.76727367 5.36041242 4.84803364 3.61047965 0 1 C0 0.67 0 0.34 0 0 Z " fill="#0B3D58" transform="translate(131,168)"/>
<path d="M0 0 C2 2 2 2 2.125 5.625 C2.08375 6.73875 2.0425 7.8525 2 9 C0.35 9 -1.3 9 -3 9 C-2.25 2.25 -2.25 2.25 0 0 Z " fill="#0D72A3" transform="translate(42,200)"/>
<path d="M0 0 C-7.87746171 5.88183807 -7.87746171 5.88183807 -12.5625 6.375 C-13.7690625 6.189375 -13.7690625 6.189375 -15 6 C-13.48400735 2.9680147 -11.1403567 2.58975563 -8.0625 1.3125 C-6.98097656 0.85488281 -5.89945313 0.39726562 -4.78515625 -0.07421875 C-2 -1 -2 -1 0 0 Z " fill="#83D5FB" transform="translate(239,161)"/>
<path d="M0 0 C-3.732388 3.57011026 -8.0949989 4.10913442 -13 5 C-13 5.66 -13 6.32 -13 7 C-13.66 6.67 -14.32 6.34 -15 6 C-13.6875 4.5 -13.6875 4.5 -12 3 C-11.01 3 -10.02 3 -9 3 C-9 2.34 -9 1.68 -9 1 C-5.8035914 -0.06546953 -3.34252724 -0.07427838 0 0 Z " fill="#07364F" transform="translate(211,155)"/>
<path d="M0 0 C0 0.99 0 1.98 0 3 C-1.36125 2.9690625 -1.36125 2.9690625 -2.75 2.9375 C-5.84934697 2.85422971 -5.84934697 2.85422971 -8.125 3.625 C-10.6524113 4.13048226 -11.78886492 3.2019033 -14 2 C-12.04396149 1.47061343 -10.08507711 0.95173199 -8.125 0.4375 C-7.03445312 0.14746094 -5.94390625 -0.14257812 -4.8203125 -0.44140625 C-2 -1 -2 -1 0 0 Z " fill="#B5E2F5" transform="translate(83,79)"/>
<path d="M0 0 C8.415 1.98 8.415 1.98 17 4 C17 4.33 17 4.66 17 5 C10.11509775 5.57374185 5.97332123 4.4753869 0 1 C0 0.67 0 0.34 0 0 Z " fill="#4F86A0" transform="translate(242,46)"/>
<path d="M0 0 C8.19256018 0.19256018 8.19256018 0.19256018 11.5625 3.5625 C12.036875 4.366875 12.51125 5.17125 13 6 C8.52761347 4.58192622 4.28853694 2.88695626 0 1 C0 0.67 0 0.34 0 0 Z " fill="#11506D" transform="translate(108,158)"/>
<path d="M0 0 C0.33 0 0.66 0 1 0 C1 3.96 1 7.92 1 12 C0.01 11.67 -0.98 11.34 -2 11 C-2 10.01 -2 9.02 -2 8 C-2.66 7.67 -3.32 7.34 -4 7 C-3.01 6.34 -2.02 5.68 -1 5 C-0.27034634 2.43717258 -0.27034634 2.43717258 0 0 Z " fill="#54B8E1" transform="translate(238,139)"/>
<path d="M0 0 C-0.99 1.485 -0.99 1.485 -2 3 C-4.6015625 3.51171875 -4.6015625 3.51171875 -7.625 3.6875 C-9.12933594 3.78611328 -9.12933594 3.78611328 -10.6640625 3.88671875 C-11.82035156 3.94279297 -11.82035156 3.94279297 -13 4 C-8.62615587 1.08410391 -5.29457529 -0.30254716 0 0 Z " fill="#034D70" transform="translate(242,69)"/>
<path d="M0 0 C0 1.32 0 2.64 0 4 C-2.97 3.01 -5.94 2.02 -9 1 C-9 0.67 -9 0.34 -9 0 C-5.62182575 -0.84454356 -3.32534757 -1.10844919 0 0 Z " fill="#3D88AC" transform="translate(142,253)"/>
<path d="M0 0 C-1 2 -1 2 -2.765625 2.62109375 C-5.14150323 3.02399618 -7.34179517 3.09791478 -9.75 3.0625 C-10.54921875 3.05347656 -11.3484375 3.04445313 -12.171875 3.03515625 C-12.77515625 3.02355469 -13.3784375 3.01195312 -14 3 C-9.11521152 0.50693368 -5.53108342 -0.12570644 0 0 Z " fill="#437F99" transform="translate(150,27)"/>
<path d="M0 0 C3.3 0 6.6 0 10 0 C10 0.33 10 0.66 10 1 C8.2984375 1.2165625 8.2984375 1.2165625 6.5625 1.4375 C3.19222799 1.61171478 3.19222799 1.61171478 2 3 C1.76924918 4.34747084 1.58846937 5.70377565 1.4375 7.0625 C1.293125 8.361875 1.14875 9.66125 1 11 C0.67 11 0.34 11 0 11 C0 7.37 0 3.74 0 0 Z " fill="#B5E0F3" transform="translate(43,85)"/>
<path d="M0 0 C1.58467728 0.28427417 3.1677057 0.57774818 4.75 0.875 C6.07257813 1.11863281 6.07257813 1.11863281 7.421875 1.3671875 C9.86947744 1.96796264 11.80599857 2.77997117 14 4 C4.41885965 4.56359649 4.41885965 4.56359649 0 1 C0 0.67 0 0.34 0 0 Z " fill="#54889D" transform="translate(210,38)"/>
<path d="M0 0 C1.65 0.33 3.3 0.66 5 1 C4.67 4.63 4.34 8.26 4 12 C3.67 12 3.34 12 3 12 C3 9.03 3 6.06 3 3 C1.35 2.67 -0.3 2.34 -2 2 C-1.34 1.34 -0.68 0.68 0 0 Z " fill="#16475D" transform="translate(81,74)"/>
<path d="M0 0 C0.66 0.33 1.32 0.66 2 1 C1 4 1 4 -1 5 C-3.3329866 5.04022391 -5.66706666 5.04320247 -8 5 C-2.6 1.4 -2.6 1.4 0 0 Z " fill="#379AC2" transform="translate(169,173)"/>
<path d="M0 0 C-4.62197306 2.21854707 -7.76824163 3.38281159 -13 3 C-9.54666565 -0.45333435 -4.63654999 -1.85462 0 0 Z " fill="#055173" transform="translate(189,84)"/>
<path d="M0 0 C4.455 0.99 4.455 0.99 9 2 C9 2.66 9 3.32 9 4 C6.36 3.67 3.72 3.34 1 3 C0.67 2.01 0.34 1.02 0 0 Z " fill="#065372" transform="translate(87,72)"/>
<path d="M0 0 C3.63 0.66 7.26 1.32 11 2 C11 2.33 11 2.66 11 3 C7.7 3 4.4 3 1 3 C0.67 2.01 0.34 1.02 0 0 Z " fill="#034F71" transform="translate(69,68)"/>
<path d="M0 0 C1.43655854 -0.08131463 2.8744483 -0.13933559 4.3125 -0.1875 C5.51326172 -0.23970703 5.51326172 -0.23970703 6.73828125 -0.29296875 C9.47851584 0.06198392 10.29171079 0.89366282 12 3 C3.96428571 2.19642857 3.96428571 2.19642857 0 0 Z " fill="#4F91B2" transform="translate(242,253)"/>
<path d="M0 0 C0.66 0.33 1.32 0.66 2 1 C1.01 2.485 1.01 2.485 0 4 C-3.625 4.6875 -3.625 4.6875 -7 5 C-4.63707344 2.47411298 -3.33537489 1.11179163 0 0 Z " fill="#83D8FC" transform="translate(212,171)"/>
<path d="M0 0 C0.99 0.33 1.98 0.66 3 1 C3 1.66 3 2.32 3 3 C3.66 3.33 4.32 3.66 5 4 C5 4.66 5 5.32 5 6 C-0.75 4.25 -0.75 4.25 -3 2 C-2.01 1.34 -1.02 0.68 0 0 Z " fill="#0C435C" transform="translate(125,162)"/>
<path d="M0 0 C3.57804656 -0.19878036 5.99208089 -0.04108797 9 2 C9.33 2.99 9.66 3.98 10 5 C6.08788267 3.84414715 3.1254959 2.64465038 0 0 Z " fill="#55C0F1" transform="translate(74,159)"/>
<path d="M0 0 C-3.20380017 2.13586678 -4.01939967 2.23132175 -7.6875 2.125 C-8.89986328 2.09792969 -8.89986328 2.09792969 -10.13671875 2.0703125 C-11.05904297 2.03550781 -11.05904297 2.03550781 -12 2 C-7.66032699 -0.21504143 -4.80574417 -1.54470348 0 0 Z " fill="#5587A1" transform="translate(38,56)"/>
<path d="M0 0 C3.63 0.66 7.26 1.32 11 2 C8 4 8 4 4 4 C4 3.34 4 2.68 4 2 C2.68 1.67 1.36 1.34 0 1 C0 0.67 0 0.34 0 0 Z " fill="#46819C" transform="translate(186,32)"/>
<path d="M0 0 C1.5 1.25 1.5 1.25 3 3 C3 4.32 3 5.64 3 7 C2.01 7.33 1.02 7.66 0 8 C0 5.36 0 2.72 0 0 Z " fill="#59BFEB" transform="translate(45,201)"/>
<path d="M0 0 C1.65 0 3.3 0 5 0 C5 0.99 5 1.98 5 3 C5.99 3.33 6.98 3.66 8 4 C7.67 4.66 7.34 5.32 7 6 C5.83054208 5.19152271 4.66449539 4.37810888 3.5 3.5625 C2.8503125 3.11003906 2.200625 2.65757812 1.53125 2.19140625 C1.0259375 1.79824219 0.520625 1.40507812 0 1 C0 0.67 0 0.34 0 0 Z " fill="#4991B3" transform="translate(146,259)"/>
<path d="M0 0 C0 0.33 0 0.66 0 1 C-3.3 1.66 -6.6 2.32 -10 3 C-10 2.34 -10 1.68 -10 1 C-6.1496895 -1.56687367 -4.41430237 -0.83288724 0 0 Z " fill="#054867" transform="translate(87,73)"/>
<path d="M0 0 C-2.55068845 2.35448165 -3.71017358 2.98327924 -7.25 3.1875 C-8.1575 3.125625 -9.065 3.06375 -10 3 C-6.88378718 -0.11621282 -4.21175599 -0.11383124 0 0 Z " fill="#044E6F" transform="translate(253,66)"/>
</svg>
